<svg viewBox="0 0 90 90" xmlns="http://www.w3.org/2000/svg">
  <g fill="none">
    <path d="M17.18 5.023c16.231.431 46.827 7.054 61.478 15.404 14.652 8.35 13.503 18.717 5.603 31.386-7.757 12.814-22.265 27.93-36.055 32.538-13.646 4.75-26.574-1.008-34.905-14.11C4.97 57.141 1.235 36.696.23 23.451-.776 10.349.948 4.59 17.18 5.023Z" fill="#EE323A"/>
    <path d="M46.77 57.284c2.154 0 4.022-.144 5.745-.576 1.724-.432 3.304-1.008 4.597-1.727 1.436-.72 2.586-1.728 3.591-2.736 1.006-1.152 1.867-2.303 2.586-3.743.718-1.44 1.292-3.024 1.58-4.895.287-1.728.574-3.743.574-5.903 0-3.167-.43-5.903-1.149-8.206-.718-2.304-2.01-4.176-3.447-5.76-1.58-1.583-3.448-2.735-5.746-3.455-2.298-.72-5.027-1.151-8.188-1.151h-29.59l-3.304 9.214h32.75c1.437 0 2.73.144 3.88.576 1.148.432 2.154 1.008 2.872 1.727.718.864 1.293 1.872 1.724 3.024.43 1.152.574 2.591.574 4.175 0 1.584-.143 3.023-.574 4.32-.431 1.295-1.006 2.447-1.724 3.31-.718 1.008-1.724 1.584-2.873 2.16-1.149.288-2.442.432-3.878.432h-9.768V32.953h-9.48v40.312h9.48v-15.98h9.768Z" fill="#FFF"/>
  </g>
</svg>

