<svg xmlns="http://www.w3.org/2000/svg" width="120" height="120" viewBox="0 0 120 120" role="img" aria-label="Priya Nair portrait illustration">
  <defs>
    <linearGradient id="bg" x1="0" y1="0" x2="1" y2="1">
      <stop offset="0" stop-color="#ff9bb2"/>
      <stop offset="1" stop-color="#a78bfa"/>
    </linearGradient>
    <linearGradient id="shirt" x1="0" y1="0" x2="1" y2="0">
      <stop offset="0" stop-color="#742a6a"/>
      <stop offset="1" stop-color="#a2347c"/>
    </linearGradient>
  </defs>
  <circle cx="60" cy="60" r="56" fill="url(#bg)"/>
  <circle cx="60" cy="60" r="55" fill="none" stroke="rgba(255,255,255,0.25)" stroke-width="2"/>
  <path d="M35 92c6-10 14-15 25-15s19 5 25 15" fill="url(#shirt)"/>
  <circle cx="60" cy="55" r="22" fill="#f3c8aa"/>
  <path d="M42 57c0-14 9-23 18-23s18 9 18 23" fill="#2d1b32"/>
  <path d="M44 55c2 10 8 16 16 16s14-6 16-16" fill="#f3c8aa"/>
  <path d="M44 49c5-3 10-4 16-4s11 1 16 4" fill="#2d1b32"/>
  <circle cx="52" cy="56" r="2.6" fill="#1b1020"/>
  <circle cx="68" cy="56" r="2.6" fill="#1b1020"/>
  <path d="M56 64.5c2.2 1 5.8 1 8 0" stroke="#d08b67" stroke-width="1.6" stroke-linecap="round" fill="none"/>
  <path d="M54 71.5c3.4 2 9.6 2 13 0" stroke="#d99b78" stroke-width="2" stroke-linecap="round" fill="none"/>
</svg>
