<svg xmlns="http://www.w3.org/2000/svg" width="120" height="120" viewBox="0 0 120 120" role="img" aria-label="Isabella Chen portrait illustration">
  <defs>
    <linearGradient id="bg" x1="0" y1="0" x2="1" y2="1">
      <stop offset="0" stop-color="#9de5ff"/>
      <stop offset="1" stop-color="#7cd4ff"/>
    </linearGradient>
    <linearGradient id="shirt" x1="0" y1="0" x2="1" y2="0">
      <stop offset="0" stop-color="#0c3c52"/>
      <stop offset="1" stop-color="#145f80"/>
    </linearGradient>
  </defs>
  <circle cx="60" cy="60" r="56" fill="url(#bg)"/>
  <circle cx="60" cy="60" r="55" fill="none" stroke="rgba(255,255,255,0.25)" stroke-width="2"/>
  <path d="M35 92c6-10 14-15 25-15s19 5 25 15" fill="url(#shirt)"/>
  <circle cx="60" cy="55" r="22" fill="#f1d6c3"/>
  <path d="M42 55c0-14 9-23 18-23s18 9 18 23" fill="#243040"/>
  <path d="M44 55c2 9 8 15 16 15s14-6 16-15" fill="#f1d6c3"/>
  <path d="M44 48c5-3 10-4 16-4s11 1 16 4" fill="#1a2635"/>
  <circle cx="52" cy="56" r="2.6" fill="#1a2635"/>
  <circle cx="68" cy="56" r="2.6" fill="#1a2635"/>
  <path d="M56 64c2 1.1 6 1.1 8 0" stroke="#d49b7a" stroke-width="1.6" stroke-linecap="round" fill="none"/>
  <path d="M54 71c3.3 2.2 10.5 2.2 14 0" stroke="#e0a98b" stroke-width="2" stroke-linecap="round" fill="none"/>
</svg>
